<svg xmlns="http://www.w3.org/2000/svg" data-name="Layer 1" viewBox="0 0 100 125" x="0px" y="0px"><title>Artboard 13</title><path d="M71.5,27.5h-43a11,11,0,0,0-11,11v23a11,11,0,0,0,11,11h43a11,11,0,0,0,11-11v-23A11,11,0,0,0,71.5,27.5ZM62.73,50.44l-19.5,10A.5.5,0,0,1,42.5,60V40a.5.5,0,0,1,.73-.44l19.5,10a.5.5,0,0,1,0,.89Z"/><text x="0" y="115" fill="#000000" font-size="5px" font-weight="bold" font-family="'Helvetica Neue', Helvetica, Arial-Unicode, Arial, Sans-serif">Created by shwepes</text><text x="0" y="120" fill="#000000" font-size="5px" font-weight="bold" font-family="'Helvetica Neue', Helvetica, Arial-Unicode, Arial, Sans-serif">from the Noun Project</text></svg>